<?xml version="1.0" encoding="UTF-8"?>
<svg id="Capa_1" data-name="Capa 1" xmlns="http://www.w3.org/2000/svg" viewBox="0 0 1080 1080">
  <defs>
    
  </defs>
  <rect class="cls-1" width="1080" height="1080"></rect>
  <g>
    <g>
      <path d="M367.96,553.57c7.43,7.32,18.57,13.11,31.95,13.11,5.65,0,10.99-1.98,10.99-5.95s-4.16-5.95-13.97-7.78c-16.35-3.05-41.31-7.01-41.31-32.48,0-17.23,13.97-32.93,41.16-32.93,16.2,0,30.76,4.73,42.05,14.18l-16.05,21.8c-8.62-6.71-19.76-10.06-27.64-10.06-7.43,0-9.06,2.74-9.06,5.34,0,3.96,4.01,5.34,14.56,7.17,16.35,2.9,40.57,7.78,40.57,31.26s-16.2,35.37-42.79,35.37c-21.1,0-35.51-6.4-46.06-16.16l15.6-22.87Z"></path>
      <path d="M451.02,590.77v-101.69h30.01v101.69h-30.01Z"></path>
      <path d="M497.08,590.77v-101.69h30.02v74.86h37.59v26.83h-67.61Z"></path>
      <path d="M576.72,590.77v-101.69h75.19v25.61h-45.17v11.89h44.13v25.61h-44.13v12.96h45.17v25.61h-75.19Z"></path>
      <path d="M731.84,590.77l-36.55-54.58v54.58h-30.01v-101.69h30.91l34.47,51.23v-51.23h30.01v101.69h-28.83Z"></path>
      <path d="M797.96,590.77v-74.86h-26.6v-26.83h83.06v26.83h-26.45v74.86h-30.02Z"></path>
      <path d="M865.11,590.77v-101.69h75.19v25.61h-45.17v11.89h44.13v25.61h-44.13v12.96h45.17v25.61h-75.19Z"></path>
      <path d="M948.32,540c0-31.41,23.48-52.6,53.79-52.6,26.75,0,39.82,15.55,45.77,29.58l-25.85,12.35c-2.53-7.93-10.25-14.79-19.91-14.79-13.67,0-23.33,11.28-23.33,25.46s9.66,25.46,23.33,25.46c9.66,0,17.38-6.86,19.91-14.79l25.85,12.2c-5.79,13.57-19.02,29.73-45.77,29.73-30.31,0-53.79-21.35-53.79-52.6Z"></path>
    </g>
    <g>
      <rect x="270.68" y="541.08" width="9.22" height="49.69"></rect>
      <rect x="257.23" y="541.08" width="9.22" height="49.69"></rect>
      <rect x="230.34" y="541.08" width="9.22" height="49.69"></rect>
      <rect x="243.79" y="541.08" width="9.22" height="49.69"></rect>
      <path d="M67.87,505.69c-4.37,1.85-8.37,4.6-11.72,8.03-3.34,3.43-6.02,7.54-7.83,12.02-1.82,4.48-2.75,9.36-2.75,14.18,0,4.84.93,9.7,2.75,14.18,1.81,4.48,4.49,8.59,7.83,12.02,3.34,3.43,7.35,6.18,11.72,8.04,4.37,1.86,9.12,2.82,13.82,2.82h49.55c1.79,0,3.52.36,5.14,1.05,1.63.69,3.12,1.71,4.36,2.99,1.24,1.28,2.24,2.81,2.92,4.48.67,1.67,1.02,3.47,1.02,5.28h9.22c0-3.05-.58-6.09-1.72-8.9-1.14-2.81-2.82-5.39-4.92-7.54-2.1-2.15-4.61-3.88-7.35-5.04-2.74-1.17-5.7-1.77-8.67-1.77h-49.55c-3.51,0-7.04-.71-10.29-2.1-3.25-1.38-6.23-3.43-8.72-5.98-2.49-2.55-4.49-5.61-5.83-8.95-1.35-3.33-2.04-6.95-2.04-10.56s.69-7.22,2.04-10.56c1.35-3.34,3.34-6.39,5.83-8.95,2.49-2.55,5.47-4.6,8.72-5.98,3.25-1.39,6.77-2.1,10.29-2.1h247.77v-9.46H81.68c-4.72,0-9.45.96-13.82,2.82Z"></path>
      <path d="M73.01,518.43c-2.74,1.16-5.25,2.89-7.35,5.04-2.1,2.15-3.78,4.73-4.92,7.54-1.14,2.81-1.72,5.85-1.72,8.9,0,3.05.58,6.09,1.72,8.9,1.14,2.81,2.82,5.39,4.92,7.54,2.1,2.15,4.61,3.88,7.35,5.04,2.74,1.17,5.7,1.77,8.68,1.77h49.55c3.51,0,7.04.71,10.29,2.1,3.25,1.38,6.23,3.43,8.72,5.98,2.49,2.55,4.49,5.61,5.83,8.95,1.35,3.34,2.04,6.95,2.04,10.56h9.22c0-4.84-.93-9.7-2.74-14.18-1.81-4.48-4.49-8.59-7.83-12.02-3.34-3.43-7.35-6.18-11.71-8.04-4.37-1.86-9.12-2.82-13.82-2.82h-49.55c-1.79,0-3.52-.36-5.15-1.05-1.63-.69-3.12-1.71-4.36-2.99-1.24-1.28-2.24-2.81-2.91-4.48-.68-1.67-1.02-3.47-1.02-5.28,0-1.84.35-3.61,1.02-5.28.67-1.67,1.67-3.2,2.91-4.48,1.25-1.28,2.74-2.3,4.36-2.99,1.63-.69,3.38-1.05,5.15-1.05h247.77v-9.46H81.68c-2.97,0-5.93.6-8.68,1.77Z"></path>
      <path d="M81.68,489.08c-6.47,0-12.97,1.31-18.96,3.86-6,2.54-11.49,6.32-16.08,11.02-4.59,4.71-8.27,10.35-10.75,16.5-1.24,3.07-2.19,6.3-2.82,9.57-.63,3.27-.94,6.6-.95,9.9,0,6.64,1.28,13.31,3.77,19.45,2.48,6.15,6.15,11.79,10.74,16.5,4.59,4.71,10.08,8.48,16.08,11.03,2.99,1.27,6.14,2.25,9.32,2.9,3.19.65,6.43.97,9.64.97h49.55s0,0,0,0c0,0,0,0,0,0h0s.06-.18.06-.18c0,0,0,0,0,0h0s0,.04,0,.04v.02c-.02.08-.02.11-.03.12h9.19c0-1.25-.24-2.48-.7-3.63-.46-1.14-1.14-2.19-2-3.07-.85-.87-1.88-1.58-2.99-2.05-1.11-.47-2.28-.71-3.53-.72h-49.55c-2.62,0-5.26-.26-7.85-.79-2.59-.53-5.15-1.32-7.58-2.36-4.88-2.07-9.35-5.14-13.09-8.98-3.73-3.83-6.73-8.42-8.74-13.43-2.02-5-3.07-10.43-3.07-15.83,0-2.69.26-5.4.77-8.06.51-2.66,1.29-5.28,2.3-7.78,2.02-5.01,5.01-9.6,8.75-13.43,3.73-3.83,8.21-6.9,13.09-8.97,4.88-2.08,10.16-3.15,15.43-3.15h247.77v-9.46H81.68Z"></path>
      <path d="M166.28,554.82c-4.59-4.71-10.08-8.48-16.08-11.03-2.73-1.16-5.58-2.07-8.48-2.72h-52.41v-2.31h240.14v-8.31H81.68c-1.22,0-2.42.25-3.53.72-1.12.47-2.14,1.17-2.99,2.05-.85.88-1.54,1.93-2,3.07-.46,1.14-.69,2.34-.7,3.62,0,1.25.24,2.48.7,3.63.46,1.14,1.14,2.19,2,3.07.85.87,1.88,1.58,2.99,2.05,1.11.47,2.28.71,3.53.72h49.55c2.62,0,5.26.26,7.85.79,2.59.53,5.15,1.32,7.58,2.36,4.88,2.07,9.35,5.14,13.08,8.97,3.73,3.83,6.73,8.42,8.74,13.43,2.03,5,3.07,10.43,3.07,15.83h9.22c0-6.64-1.28-13.31-3.77-19.45-2.48-6.15-6.15-11.79-10.74-16.5Z"></path>
    </g>
  </g>
</svg>