<?xml version="1.0" encoding="UTF-8"?>
<svg id="Capa_1" data-name="Capa 1" xmlns="http://www.w3.org/2000/svg" viewBox="0 0 1080 1080">
  <defs>
    
  </defs>
  <rect class="cls-1" width="1080" height="1080"></rect>
  <g>
    <path d="M88.08,613.89c10.04,9.64,25.11,17.27,43.19,17.27,7.63,0,14.86-2.61,14.86-7.83s-5.62-7.83-18.88-10.24c-22.1-4.02-55.84-9.24-55.84-42.78,0-22.7,18.88-43.39,55.64-43.39,21.89,0,41.58,6.23,56.84,18.68l-21.69,28.72c-11.65-8.84-26.72-13.26-37.36-13.26-10.04,0-12.25,3.61-12.25,7.03,0,5.22,5.42,7.03,19.68,9.44,22.1,3.82,54.84,10.24,54.84,41.18s-21.89,46.6-57.85,46.6c-28.52,0-48-8.44-62.26-21.29l21.09-30.13Z"></path>
    <path d="M200.36,662.9v-133.97h40.57v133.97h-40.57Z"></path>
    <path d="M262.62,662.9v-133.97h40.57v98.62h50.82v35.35h-91.39Z"></path>
    <path d="M370.28,662.9v-133.97h101.64v33.74h-61.06v15.67h59.66v33.74h-59.66v17.07h61.06v33.74h-101.64Z"></path>
    <path d="M579.97,662.9l-49.41-71.91v71.91h-40.57v-133.97h41.78l46.6,67.49v-67.49h40.57v133.97h-38.97Z"></path>
    <path d="M669.35,662.9v-98.62h-35.95v-35.35h112.28v35.35h-35.75v98.62h-40.57Z"></path>
    <path d="M760.13,662.9v-133.97h101.64v33.74h-61.06v15.67h59.66v33.74h-59.66v17.07h61.06v33.74h-101.64Z"></path>
    <path d="M872.6,596.01c0-41.38,31.74-69.3,72.71-69.3,36.16,0,53.83,20.49,61.87,38.97l-34.95,16.27c-3.42-10.44-13.86-19.48-26.92-19.48-18.48,0-31.53,14.86-31.53,33.54s13.06,33.54,31.53,33.54c13.06,0,23.5-9.04,26.92-19.48l34.95,16.07c-7.83,17.88-25.71,39.17-61.87,39.17-40.97,0-72.71-28.12-72.71-69.3Z"></path>
  </g>
  <g>
    <path d="M537.79,490.66s0,0,0,0v.04s-.03.09-.03.09l-.02.08c-.04.24-.05.34-.07.37,0,.03-.02.01-.05,0h-.05s0-.02,0-.02h0s0-.01,0-.01h0s.2-.54.2-.54Z"></path>
    <path d="M537.8,490.66v.04s-.03.09-.03.09l-.02.08c-.04.24-.05.34-.07.37,0,.03-.02.01-.05,0h-.05s0-.02,0-.02c0-.02,0,0,0,0h0s.2-.55.2-.55c0,0,0,0,0,0Z"></path>
  </g>
  <g>
    <path d="M96.47,720.02c.37.92,1.03,1.76,2,2.52s2.3,1.45,4,2.07c1.7.62,3.88,1.21,6.55,1.76,5.38,1.2,9.34,2.85,11.89,4.97,2.55,2.12,3.83,5.04,3.83,8.77,0,2.07-.41,3.96-1.22,5.66-.82,1.7-1.94,3.15-3.38,4.35-1.43,1.2-3.16,2.12-5.19,2.76s-4.23.97-6.62.97c-3.86,0-7.39-.62-10.58-1.87-3.2-1.24-6.24-3.17-9.14-5.78l3.38-4c2.53,2.3,5.08,4.01,7.65,5.14,2.57,1.13,5.54,1.69,8.89,1.69s5.87-.76,7.82-2.28c1.95-1.52,2.93-3.52,2.93-6.01,0-1.15-.18-2.17-.55-3.07-.37-.9-1.01-1.71-1.94-2.45-.92-.74-2.2-1.4-3.83-2-1.63-.6-3.72-1.17-6.25-1.73-2.76-.6-5.17-1.29-7.22-2.07-2.05-.78-3.74-1.73-5.08-2.83-1.34-1.1-2.33-2.39-2.97-3.87-.64-1.47-.97-3.22-.97-5.25s.39-3.7,1.17-5.32c.78-1.61,1.88-3,3.31-4.18,1.42-1.18,3.1-2.09,5.03-2.76,1.93-.67,4.04-1,6.34-1,3.54,0,6.63.49,9.27,1.46,2.64.97,5.2,2.44,7.69,4.4l-3.17,4.21c-2.25-1.84-4.52-3.17-6.79-4-2.28-.83-4.65-1.24-7.14-1.24-1.56,0-2.98.21-4.24.62-1.26.42-2.34.97-3.24,1.66s-1.59,1.52-2.07,2.49-.72,2-.72,3.11.19,2.19.55,3.11Z"></path>
    <path d="M181.13,738.52c-1.2,3.01-2.87,5.67-5.03,7.96-2.16,2.3-4.76,4.13-7.79,5.48-3.03,1.35-6.39,2.03-10.07,2.03s-7.02-.67-10.03-2c-3.01-1.33-5.6-3.14-7.76-5.41-2.16-2.28-3.82-4.92-5-7.93-1.17-3.01-1.76-6.19-1.76-9.55s.6-6.54,1.79-9.55c1.19-3.01,2.87-5.66,5.03-7.96,2.16-2.3,4.76-4.12,7.79-5.48,3.03-1.35,6.39-2.03,10.07-2.03s7.02.67,10.03,2c3.01,1.33,5.59,3.14,7.76,5.41,2.16,2.27,3.83,4.92,5,7.93,1.17,3.01,1.76,6.19,1.76,9.55s-.6,6.54-1.79,9.55ZM175.85,721.32c-.94-2.43-2.26-4.55-3.97-6.34-1.7-1.79-3.71-3.22-6.03-4.27-2.32-1.06-4.86-1.59-7.62-1.59s-5.3.52-7.62,1.55c-2.32,1.03-4.31,2.45-5.96,4.24-1.65,1.79-2.95,3.9-3.89,6.31-.94,2.41-1.41,5-1.41,7.76s.47,5.35,1.41,7.79c.94,2.44,2.26,4.55,3.96,6.34,1.7,1.79,3.71,3.22,6.03,4.27,2.32,1.06,4.86,1.59,7.62,1.59s5.3-.52,7.62-1.55c2.32-1.03,4.31-2.45,5.96-4.24s2.95-3.9,3.9-6.31c.94-2.41,1.41-5,1.41-7.76s-.47-5.35-1.41-7.79Z"></path>
    <path d="M229.04,727.18c-1.01,1.98-2.38,3.63-4.1,4.96-1.72,1.33-3.73,2.33-6.03,3-2.3.67-4.73,1-7.31,1h-11.72v17.03h-5.45v-48.26h18.06c2.71,0,5.18.36,7.41,1.07,2.23.71,4.14,1.72,5.72,3.03s2.8,2.92,3.65,4.83c.85,1.91,1.28,4.06,1.28,6.45,0,2.62-.51,4.92-1.52,6.89ZM221.55,712.6c-2.37-1.77-5.52-2.65-9.44-2.65h-12.24v21.23h11.96c1.98,0,3.79-.25,5.43-.76,1.63-.51,3.04-1.23,4.22-2.17,1.18-.94,2.07-2.07,2.7-3.38.62-1.31.93-2.77.93-4.38,0-3.49-1.19-6.12-3.56-7.89Z"></path>
    <path d="M285.78,738.52c-1.2,3.01-2.87,5.67-5.03,7.96-2.16,2.3-4.76,4.13-7.79,5.48-3.03,1.35-6.39,2.03-10.07,2.03s-7.02-.67-10.03-2c-3.01-1.33-5.6-3.14-7.76-5.41-2.16-2.28-3.82-4.92-5-7.93-1.17-3.01-1.76-6.19-1.76-9.55s.6-6.54,1.79-9.55c1.19-3.01,2.87-5.66,5.03-7.96,2.16-2.3,4.76-4.12,7.79-5.48,3.03-1.35,6.39-2.03,10.07-2.03s7.02.67,10.03,2c3.01,1.33,5.59,3.14,7.76,5.41,2.16,2.27,3.83,4.92,5,7.93,1.17,3.01,1.76,6.19,1.76,9.55s-.6,6.54-1.79,9.55ZM280.5,721.32c-.94-2.43-2.26-4.55-3.97-6.34-1.7-1.79-3.71-3.22-6.03-4.27-2.32-1.06-4.86-1.59-7.62-1.59s-5.3.52-7.62,1.55c-2.32,1.03-4.31,2.45-5.96,4.24-1.65,1.79-2.95,3.9-3.89,6.31-.94,2.41-1.41,5-1.41,7.76s.47,5.35,1.41,7.79c.94,2.44,2.26,4.55,3.96,6.34,1.7,1.79,3.71,3.22,6.03,4.27,2.32,1.06,4.86,1.59,7.62,1.59s5.3-.52,7.62-1.55c2.32-1.03,4.31-2.45,5.96-4.24s2.95-3.9,3.9-6.31c.94-2.41,1.41-5,1.41-7.76s-.47-5.35-1.41-7.79Z"></path>
    <path d="M332.31,753.17l-14-18.75h-13.79v18.75h-5.45v-48.26h20.75c2.66,0,5.07.35,7.2,1.04,2.14.69,3.96,1.67,5.48,2.93,1.52,1.26,2.69,2.78,3.52,4.55.83,1.77,1.24,3.74,1.24,5.9,0,2.02-.32,3.83-.97,5.41-.64,1.59-1.55,2.97-2.72,4.14-1.17,1.17-2.56,2.15-4.17,2.93-1.61.78-3.36,1.33-5.24,1.65l14.82,19.7h-6.69ZM328.58,712.47c-2.17-1.68-5.21-2.53-9.12-2.53h-14.93v19.65h14.86c1.8,0,3.45-.23,4.97-.69,1.52-.46,2.83-1.12,3.94-1.97,1.11-.85,1.97-1.9,2.59-3.15.62-1.25.93-2.65.93-4.22,0-3.04-1.09-5.41-3.25-7.09Z"></path>
    <path d="M366.65,753.17h-5.45v-43.23h-16.2v-5.03h37.85v5.03h-16.2v43.23Z"></path>
    <path d="M428,709.87h-29.44v16.48h26.34v4.96h-26.34v16.89h29.78v4.96h-35.23v-48.26h34.88v4.96Z"></path>
    <path d="M494.87,709.87h-29.44v16.48h26.33v4.96h-26.33v16.89h29.78v4.96h-35.23v-48.26h34.88v4.96Z"></path>
    <path d="M541.69,704.91h5.31v48.26h-4.34l-31.16-39.57v39.57h-5.31v-48.26h5.1l30.4,38.68v-38.68Z"></path>
    <path d="M599.53,753.17h-5.45v-43.23h-16.2v-5.03h37.85v5.03h-16.2v43.23Z"></path>
    <path d="M665.43,732.55c0,3.54-.48,6.64-1.45,9.31-.96,2.67-2.33,4.89-4.1,6.69-1.77,1.79-3.89,3.14-6.34,4.03-2.46.9-5.21,1.34-8.24,1.34s-5.71-.45-8.17-1.34c-2.46-.9-4.57-2.23-6.34-4-1.77-1.77-3.14-3.96-4.1-6.58-.97-2.62-1.45-5.63-1.45-9.03v-28.06h5.45v27.72c0,5.24,1.3,9.26,3.9,12.06,2.6,2.8,6.21,4.21,10.86,4.21s8-1.33,10.62-4c2.62-2.66,3.93-6.64,3.93-11.93v-28.06h5.45v27.65Z"></path>
    <path d="M736.48,749c-1.36,1.03-2.82,1.92-4.38,2.65-1.56.74-3.24,1.31-5.03,1.72-1.79.41-3.79.62-6,.62-3.49,0-6.71-.64-9.65-1.93-2.94-1.29-5.49-3.04-7.65-5.27-2.16-2.23-3.85-4.86-5.07-7.89-1.22-3.03-1.83-6.3-1.83-9.79s.61-6.69,1.83-9.72c1.22-3.03,2.91-5.69,5.07-7.96,2.16-2.28,4.73-4.07,7.72-5.38,2.99-1.31,6.25-1.96,9.79-1.96,2.21,0,4.19.19,5.96.55,1.77.37,3.41.89,4.93,1.55,1.52.67,2.92,1.47,4.2,2.41s2.53,1.99,3.72,3.14l-3.72,4c-2.07-1.93-4.29-3.52-6.65-4.76-2.37-1.24-5.2-1.86-8.51-1.86-2.66,0-5.14.51-7.41,1.52-2.28,1.01-4.25,2.41-5.93,4.21-1.68,1.79-2.99,3.9-3.93,6.31-.94,2.41-1.41,5.02-1.41,7.82s.47,5.42,1.41,7.86c.94,2.44,2.25,4.55,3.93,6.34s3.65,3.21,5.93,4.24c2.27,1.03,4.75,1.55,7.41,1.55,3.31,0,6.16-.61,8.55-1.83,2.39-1.22,4.73-2.93,7.03-5.14l3.58,3.52c-1.24,1.29-2.54,2.45-3.89,3.48Z"></path>
    <path d="M794.83,753.17h-5.86l-5.65-12.75h-26.27l-5.72,12.75h-5.59l21.99-48.6h5.1l21.99,48.6ZM770.22,710.98l-11.03,24.61h21.99l-10.96-24.61Z"></path>
    <path d="M827.51,739.93h-.27l-17.58-25.78v39.02h-5.31v-48.26h5.52l17.58,26.34,17.58-26.34h5.52v48.26h-5.45v-39.09l-17.58,25.85Z"></path>
    <path d="M870.12,704.91v48.26h-5.45v-48.26h5.45Z"></path>
    <path d="M919.75,704.91h5.31v48.26h-4.34l-31.16-39.57v39.57h-5.31v-48.26h5.1l30.4,38.68v-38.68Z"></path>
    <path d="M984.01,738.52c-1.2,3.01-2.87,5.67-5.03,7.96-2.16,2.3-4.76,4.13-7.79,5.48-3.03,1.35-6.39,2.03-10.07,2.03s-7.02-.67-10.03-2c-3.01-1.33-5.6-3.14-7.76-5.41-2.16-2.28-3.83-4.92-5-7.93-1.17-3.01-1.76-6.19-1.76-9.55s.6-6.54,1.79-9.55c1.19-3.01,2.87-5.66,5.03-7.96,2.16-2.3,4.76-4.12,7.79-5.48,3.03-1.35,6.39-2.03,10.07-2.03s7.02.67,10.03,2c3.01,1.33,5.59,3.14,7.76,5.41,2.16,2.27,3.82,4.92,5,7.93,1.17,3.01,1.76,6.19,1.76,9.55s-.6,6.54-1.79,9.55ZM978.73,721.32c-.94-2.43-2.26-4.55-3.96-6.34-1.7-1.79-3.71-3.22-6.03-4.27-2.32-1.06-4.86-1.59-7.62-1.59s-5.3.52-7.62,1.55c-2.32,1.03-4.31,2.45-5.96,4.24-1.65,1.79-2.95,3.9-3.9,6.31-.94,2.41-1.41,5-1.41,7.76s.47,5.35,1.41,7.79c.94,2.44,2.26,4.55,3.96,6.34,1.7,1.79,3.71,3.22,6.03,4.27,2.32,1.06,4.86,1.59,7.62,1.59s5.3-.52,7.62-1.55c2.32-1.03,4.31-2.45,5.96-4.24s2.95-3.9,3.9-6.31c.94-2.41,1.41-5,1.41-7.76s-.47-5.35-1.41-7.79Z"></path>
  </g>
  <g>
    <rect x="686.61" y="409.97" width="15.28" height="80.24"></rect>
    <rect x="664.33" y="409.97" width="15.28" height="80.24"></rect>
    <rect x="619.79" y="409.97" width="15.28" height="80.24"></rect>
    <rect x="642.06" y="409.97" width="15.28" height="80.24"></rect>
    <path d="M350.59,352.83c-7.24,2.99-13.87,7.43-19.41,12.97-5.54,5.54-9.98,12.17-12.97,19.41-3.01,7.24-4.55,15.12-4.55,22.9,0,7.82,1.55,15.66,4.55,22.89,2.99,7.24,7.43,13.87,12.97,19.41,5.54,5.54,12.17,9.98,19.41,12.97,7.23,3.01,15.12,4.56,22.9,4.55h82.1c2.97,0,5.83.58,8.52,1.69,2.69,1.11,5.17,2.77,7.23,4.83,2.06,2.06,3.72,4.53,4.83,7.23,1.12,2.69,1.69,5.6,1.69,8.53h15.28c0-4.92-.97-9.83-2.85-14.37-1.88-4.54-4.67-8.71-8.14-12.18-3.48-3.48-7.64-6.26-12.18-8.14-4.54-1.89-9.44-2.85-14.37-2.85h-82.1c-5.82,0-11.66-1.15-17.05-3.39-5.39-2.23-10.33-5.54-14.45-9.66-4.12-4.13-7.43-9.06-9.66-14.45-2.24-5.38-3.39-11.22-3.39-17.05s1.15-11.66,3.39-17.05c2.23-5.39,5.54-10.33,9.66-14.45,4.12-4.12,9.06-7.43,14.45-9.66,5.39-2.24,11.22-3.39,17.05-3.39h410.5v-15.28h-410.5c-7.82,0-15.66,1.55-22.89,4.55Z"></path>
    <path d="M359.11,373.41c-4.54,1.88-8.71,4.67-12.18,8.14-3.48,3.48-6.26,7.64-8.14,12.18-1.89,4.54-2.85,9.45-2.85,14.37,0,4.92.97,9.83,2.85,14.37,1.88,4.54,4.67,8.71,8.14,12.18,3.48,3.48,7.64,6.26,12.18,8.14,4.54,1.89,9.45,2.85,14.37,2.85h82.1c5.82,0,11.66,1.15,17.05,3.39,5.39,2.23,10.33,5.54,14.45,9.66,4.13,4.12,7.43,9.06,9.66,14.45,2.24,5.39,3.38,11.22,3.39,17.05h15.28c0-7.82-1.54-15.66-4.55-22.89-2.99-7.24-7.43-13.87-12.97-19.41-5.54-5.54-12.17-9.98-19.41-12.97-7.23-3.01-15.12-4.55-22.9-4.55h-82.1c-2.97,0-5.83-.57-8.52-1.69-2.69-1.11-5.16-2.77-7.23-4.83-2.06-2.06-3.71-4.53-4.83-7.23-1.12-2.69-1.69-5.6-1.7-8.53,0-2.97.58-5.83,1.69-8.52,1.11-2.69,2.77-5.16,4.83-7.23,2.06-2.06,4.53-3.71,7.23-4.83,2.69-1.12,5.6-1.69,8.53-1.7h410.5v-15.28h-410.5c-4.92,0-9.83.97-14.37,2.85Z"></path>
    <path d="M373.49,326c-10.73,0-21.49,2.12-31.41,6.24-9.93,4.11-19.04,10.2-26.64,17.8-7.6,7.6-13.69,16.71-17.81,26.64-2.06,4.96-3.64,10.17-4.68,15.45-1.05,5.28-1.56,10.66-1.57,15.98,0,10.72,2.12,21.49,6.24,31.41,4.11,9.93,10.2,19.04,17.8,26.64,7.6,7.6,16.71,13.7,26.64,17.81,4.96,2.06,10.17,3.64,15.45,4.68,5.28,1.05,10.66,1.56,15.98,1.57h82.1s0,0,0,0c0,0,0,0,0,0h0s.1-.29.1-.29c0,0,0,0,0,0v.02s-.02.05-.02.05v.04c-.03.13-.03.18-.04.19h15.23c0-2.02-.4-4-1.17-5.85-.76-1.85-1.9-3.54-3.31-4.96-1.41-1.41-3.11-2.55-4.96-3.31-1.85-.76-3.77-1.15-5.85-1.16h-82.1c-4.34,0-8.71-.43-13.01-1.28-4.3-.85-8.53-2.13-12.56-3.81-8.08-3.35-15.49-8.3-21.68-14.49-6.19-6.19-11.14-13.6-14.49-21.68-3.35-8.07-5.08-16.83-5.08-25.57,0-4.34.43-8.71,1.28-13.01.85-4.3,2.13-8.53,3.81-12.56,3.34-8.08,8.3-15.49,14.49-21.68,6.19-6.19,13.6-11.14,21.68-14.49,8.08-3.35,16.83-5.08,25.57-5.08h410.5v-15.28h-410.5Z"></path>
    <path d="M513.65,432.16c-7.6-7.6-16.7-13.69-26.63-17.81-4.52-1.87-9.25-3.35-14.05-4.38h-86.84v-3.72h397.87v-13.42h-410.5c-2.02,0-4,.4-5.85,1.17-1.85.76-3.54,1.9-4.96,3.31-1.41,1.42-2.55,3.11-3.31,4.96-.76,1.84-1.15,3.77-1.16,5.85,0,2.01.4,4,1.17,5.85.77,1.85,1.9,3.54,3.31,4.96,1.42,1.41,3.11,2.55,4.96,3.31,1.84.76,3.77,1.15,5.85,1.16h82.1c4.34,0,8.71.43,13.01,1.28,4.3.85,8.53,2.13,12.56,3.81,8.08,3.34,15.49,8.3,21.68,14.49,6.19,6.19,11.14,13.6,14.49,21.68,3.36,8.08,5.08,16.83,5.08,25.57h15.28c0-10.73-2.12-21.49-6.24-31.41-4.11-9.93-10.2-19.04-17.8-26.64Z"></path>
  </g>
  <g>
    <path d="M1013,462.93s0,0,0,0v.04s-.03.09-.03.09l-.02.08c-.04.24-.05.34-.07.37,0,.03-.02.01-.05,0h-.05s0-.02,0-.02h0s0-.01,0-.01h0s.2-.54.2-.54Z"></path>
    <path d="M1013.01,462.92v.04s-.03.09-.03.09l-.02.08c-.04.24-.05.34-.07.37,0,.03-.02.01-.05,0h-.05s0-.02,0-.02c0-.02,0,0,0,0h0s.2-.55.2-.55c0,0,0,0,0,0Z"></path>
  </g>
</svg>