<?xml version="1.0" encoding="UTF-8"?>
<svg id="Capa_1" data-name="Capa 1" xmlns="http://www.w3.org/2000/svg" viewBox="0 0 1080 1080">
  <defs>
    
  </defs>
  <rect class="cls-1" width="1080" height="1080"></rect>
  <g>
    <rect x="837.46" y="543.72" width="30.52" height="160.27"></rect>
    <rect x="792.97" y="543.72" width="30.52" height="160.27"></rect>
    <rect x="703.99" y="543.72" width="30.52" height="160.27"></rect>
    <rect x="748.48" y="543.72" width="30.52" height="160.27"></rect>
    <path d="M166.29,429.58c-14.46,5.98-27.71,14.85-38.77,25.91-11.06,11.06-19.93,24.31-25.92,38.77-6.01,14.46-9.09,30.2-9.09,45.74,0,15.62,3.09,31.28,9.08,45.72,5.98,14.46,14.85,27.71,25.91,38.77,11.06,11.07,24.31,19.93,38.77,25.91,14.45,6.01,30.19,9.1,45.74,9.09h163.99c5.93.02,11.65,1.15,17.02,3.38,5.38,2.23,10.32,5.53,14.43,9.64,4.12,4.12,7.42,9.05,9.65,14.43,2.23,5.38,3.38,11.19,3.38,17.04h30.52c0-9.82-1.93-19.64-5.7-28.71-3.76-9.07-9.33-17.39-16.27-24.33-6.95-6.94-15.26-12.51-24.34-16.27-9.07-3.77-18.87-5.7-28.7-5.7h-163.99c-11.63,0-23.3-2.3-34.05-6.77-10.77-4.45-20.63-11.06-28.87-19.3-8.23-8.24-14.84-18.1-19.3-28.87-4.47-10.75-6.76-22.4-6.76-34.05s2.29-23.3,6.76-34.06c4.46-10.76,11.06-20.62,19.3-28.86,8.23-8.23,18.1-14.84,28.86-19.3,10.76-4.47,22.41-6.76,34.05-6.76h819.95v-30.52H212.02c-15.62,0-31.28,3.09-45.73,9.08Z"></path>
    <path d="M183.31,470.69c-9.07,3.76-17.39,9.32-24.33,16.27-6.94,6.94-12.51,15.26-16.27,24.33-3.77,9.07-5.69,18.87-5.7,28.71,0,9.82,1.93,19.64,5.7,28.71,3.76,9.07,9.32,17.39,16.27,24.33,6.94,6.94,15.26,12.51,24.33,16.27,9.07,3.77,18.87,5.7,28.71,5.7h163.99c11.63,0,23.3,2.29,34.05,6.76,10.76,4.46,20.63,11.06,28.86,19.3,8.24,8.23,14.84,18.1,19.3,28.86,4.47,10.76,6.76,22.41,6.76,34.05h30.52c0-15.62-3.08-31.28-9.08-45.73-5.98-14.46-14.85-27.71-25.91-38.77-11.06-11.06-24.31-19.93-38.77-25.91-14.45-6.01-30.2-9.1-45.74-9.09h-163.99c-5.93-.02-11.65-1.15-17.03-3.37-5.38-2.23-10.31-5.53-14.43-9.65-4.12-4.12-7.42-9.05-9.64-14.43-2.24-5.38-3.38-11.19-3.39-17.03.02-5.93,1.15-11.65,3.38-17.03,2.23-5.38,5.53-10.31,9.64-14.43,4.12-4.12,9.05-7.42,14.43-9.64,5.38-2.24,11.19-3.38,17.04-3.39h819.95v-30.52H212.02c-9.82,0-19.64,1.93-28.71,5.7Z"></path>
    <path d="M212.02,376.01c-21.43,0-42.92,4.23-62.74,12.46-19.84,8.21-38.03,20.37-53.21,35.55-15.19,15.18-27.35,33.37-35.57,53.21-4.11,9.9-7.26,20.31-9.35,30.86-2.09,10.56-3.12,21.29-3.13,31.91,0,21.42,4.23,42.92,12.46,62.74,8.21,19.84,20.37,38.03,35.55,53.21,15.18,15.19,33.37,27.36,53.21,35.57,9.9,4.11,20.31,7.26,30.86,9.35,10.56,2.09,21.29,3.12,31.91,3.13h163.99s0-.02,0-.02c-.01-.02,0,0,0,0h0s.21-.57.21-.57c0,0,0,0,0,0v.04s-.03.09-.03.09l-.02.08c-.04.25-.05.36-.07.39h30.43c-.02-4.03-.8-8-2.33-11.69-1.52-3.69-3.79-7.08-6.61-9.9-2.83-2.82-6.21-5.08-9.9-6.61-3.69-1.52-7.54-2.29-11.68-2.31h-163.99c-8.66,0-17.4-.85-25.99-2.55-8.58-1.7-17.03-4.26-25.1-7.6-16.15-6.68-30.95-16.59-43.3-28.95-12.36-12.36-22.26-27.16-28.94-43.3-6.7-16.13-10.15-33.62-10.15-51.06,0-8.67.85-17.4,2.55-25.99,1.7-8.58,4.26-17.03,7.61-25.1,6.68-16.15,16.59-30.95,28.94-43.3,12.36-12.36,27.16-22.26,43.3-28.94,16.13-6.7,33.62-10.15,51.07-10.15h819.95v-30.52H212.02Z"></path>
    <path d="M491.98,588.04c-15.18-15.19-33.36-27.35-53.2-35.57-9.03-3.74-18.48-6.69-28.07-8.76h-173.45v-7.44h794.71v-26.8H212.02c-4.03.01-8,.8-11.69,2.33-3.69,1.52-7.08,3.79-9.9,6.61-2.82,2.83-5.08,6.21-6.61,9.9-1.52,3.68-2.29,7.54-2.31,11.68.01,4.02.8,8,2.33,11.69,1.53,3.69,3.79,7.07,6.61,9.9,2.83,2.82,6.21,5.08,9.9,6.61,3.68,1.52,7.54,2.3,11.68,2.31h163.99c8.66,0,17.4.85,25.99,2.55,8.58,1.7,17.03,4.26,25.1,7.61,16.15,6.68,30.95,16.59,43.3,28.94,12.36,12.36,22.26,27.16,28.94,43.3,6.7,16.13,10.15,33.62,10.15,51.07h30.52c0-21.43-4.23-42.92-12.47-62.74-8.2-19.84-20.37-38.03-35.55-53.21Z"></path>
  </g>
</svg>